<svg version="1.1" id="Layer_1" xmlns="http://www.w3.org/2000/svg" x="0" y="0" viewBox="0 0 512 512" style="enable-background:new 0 0 512 512" xml:space="preserve"><path style="fill:#ed7161" d="M406.069 512H105.931C47.431 512 0 464.569 0 406.069V105.931C0 47.431 47.431 0 105.931 0h300.138C464.569 0 512 47.431 512 105.931v300.138C512 464.569 464.569 512 406.069 512"/><path style="fill:#fff" d="M220.69 361.935a8.858 8.858 0 0 1-3.019-.539c-4.573-1.668-6.947-6.727-5.27-11.308l70.621-194.207c1.66-4.582 6.709-6.939 11.308-5.279 4.573 1.668 6.947 6.727 5.27 11.308l-70.621 194.207c-1.298 3.594-4.688 5.818-8.289 5.818M176.552 361.931c-19.474 0-35.31-15.837-35.31-35.31v-40.483l-23.896-23.896a8.817 8.817 0 0 1 0-12.482l23.896-23.896v-40.483c0-19.474 15.837-35.31 35.31-35.31a8.826 8.826 0 0 1 8.828 8.828 8.826 8.826 0 0 1-8.828 8.828c-9.737 0-17.655 7.918-17.655 17.655v44.138c0 2.339-.927 4.59-2.586 6.241L136.068 256l20.242 20.242a8.803 8.803 0 0 1 2.586 6.241v44.138c0 9.737 7.918 17.655 17.655 17.655a8.826 8.826 0 0 1 8.828 8.828 8.825 8.825 0 0 1-8.827 8.827M335.448 361.931a8.826 8.826 0 0 1-8.828-8.828 8.826 8.826 0 0 1 8.828-8.828c9.737 0 17.655-7.918 17.655-17.655v-44.138c0-2.348.927-4.599 2.595-6.25L375.985 256l-20.286-20.233a8.783 8.783 0 0 1-2.595-6.25v-44.138c0-9.737-7.918-17.655-17.655-17.655a8.826 8.826 0 0 1-8.828-8.828 8.826 8.826 0 0 1 8.828-8.828c19.474 0 35.31 15.837 35.31 35.31v40.474l23.958 23.896a8.82 8.82 0 0 1 0 12.5l-23.958 23.896v40.474c0 19.476-15.837 35.313-35.311 35.313"/></svg>